<?xml version="1.0" encoding="utf-8"?>
<!DOCTYPE svg PUBLIC "-//W3C//DTD SVG 1.1//EN" "http://www.w3.org/Graphics/SVG/1.1/DTD/svg11.dtd">
<svg version="1.1" id="Layer_1" xmlns="http://www.w3.org/2000/svg" xmlns:xlink="http://www.w3.org/1999/xlink" x="0px" y="0px"
	 width="621px" height="360px" viewBox="0 0 621 360" enable-background="new 0 0 621 360" xml:space="preserve">
<path opacity="0.5" fill="#B433B4" d="M612,339c0,6.627-5.373,12-12,12H21c-6.627,0-12-5.373-12-12v-30c0-6.627,5.373-12,12-12h579
	c6.627,0,12,5.373,12,12V339z"/>
<path opacity="0.5" fill="#009246" d="M612,267c0,6.627-5.373,12-12,12H21c-6.627,0-12-5.373-12-12V237c0-6.628,5.373-12,12-12h579
	c6.627,0,12,5.373,12,12V267z"/>
<path opacity="0.5" fill="#FEC200" d="M612,195c0,6.627-5.373,12-12,12H21c-6.627,0-12-5.373-12-12v-30c0-6.627,5.373-12,12-12h579
	c6.627,0,12,5.373,12,12V195z"/>
<path opacity="0.5" fill="#0081CD" d="M612,123c0,6.627-5.373,12-12,12H21c-6.627,0-12-5.373-12-12V93c0-6.627,5.373-12,12-12h579
	c6.627,0,12,5.373,12,12V123z"/>
<path opacity="0.5" fill="#BC3232" d="M612,51c0,6.627-5.373,12-12,12H21c-6.627,0-12-5.373-12-12V21c0-6.627,5.373-12,12-12h579
	c6.627,0,12,5.373,12,12V51z"/>
<circle fill="#FFFFFF" stroke="#000000" stroke-width="1.5" cx="36" cy="36" r="9"/>
<circle fill="#FFFFFF" stroke="#000000" stroke-width="1.5" cx="108" cy="36" r="9"/>
<circle fill="#FFFFFF" stroke="#000000" stroke-width="1.5" cx="216" cy="108" r="9"/>
<circle fill="#FFFFFF" stroke="#000000" stroke-width="1.5" cx="288" cy="108" r="9"/>
<circle fill="#FFFFFF" stroke="#000000" stroke-width="1.5" cx="288" cy="180" r="9"/>
<circle fill="#FFFFFF" stroke="#000000" stroke-width="1.5" cx="252" cy="252" r="9"/>
<circle fill="#FFFFFF" stroke="#000000" stroke-width="1.5" cx="252" cy="36" r="9"/>
<circle fill="#FFFFFF" stroke="#000000" stroke-width="1.5" cx="360" cy="36" r="9"/>
<circle fill="#FFFFFF" stroke="#000000" stroke-width="1.5" cx="396" cy="108" r="9"/>
<circle fill="#FFFFFF" stroke="#000000" stroke-width="1.5" cx="432" cy="180" r="9"/>
<circle fill="#FFFFFF" stroke="#000000" stroke-width="1.5" cx="396" cy="252" r="9"/>
<circle fill="#FFFFFF" stroke="#000000" stroke-width="1.5" cx="360" cy="324" r="9"/>
<circle fill="#FFFFFF" stroke="#000000" stroke-width="1.5" cx="72" cy="108" r="9"/>
<circle fill="#FFFFFF" stroke="#000000" stroke-width="1.5" cx="144" cy="108" r="9"/>
<circle fill="#FFFFFF" stroke="#000000" stroke-width="1.5" cx="36" cy="180" r="9"/>
<g>
	<g>
		<line fill="none" stroke="#000000" stroke-width="1.5" x1="45" y1="54" x2="63" y2="90"/>
		<path d="M67.048,98.097c-3.318-3.104-8.094-6.625-12.113-8.277l7.533-0.882l5.226-5.497
			C66.605,87.647,66.557,93.581,67.048,98.097z"/>
	</g>
</g>
<g>
	<g>
		<line fill="none" stroke="#000000" stroke-width="1.5" x1="99" y1="54" x2="81" y2="90"/>
		<path d="M76.952,98.097c0.491-4.517,0.443-10.45-0.646-14.657l5.226,5.497l7.533,0.882C85.046,91.473,80.27,94.994,76.952,98.097z
			"/>
	</g>
</g>
<g>
	<g>
		<line fill="none" stroke="#000000" stroke-width="1.5" x1="117" y1="54" x2="135" y2="90"/>
		<path d="M139.048,98.097c-3.318-3.104-8.094-6.625-12.113-8.277l7.533-0.882l5.226-5.497
			C138.605,87.647,138.557,93.581,139.048,98.097z"/>
	</g>
</g>
<g>
	<g>
		<line fill="none" stroke="#000000" stroke-width="1.5" x1="243" y1="54" x2="225" y2="90"/>
		<path d="M220.951,98.098c0.491-4.517,0.443-10.45-0.646-14.657l5.226,5.497l7.533,0.882
			C229.045,91.473,224.269,94.994,220.951,98.098z"/>
	</g>
</g>
<g>
	<g>
		<line fill="none" stroke="#000000" stroke-width="1.5" x1="423" y1="198" x2="405" y2="234"/>
		<path d="M400.951,242.097c0.491-4.517,0.443-10.45-0.646-14.656l5.226,5.497l7.533,0.882
			C409.045,235.473,404.269,238.994,400.951,242.097z"/>
	</g>
</g>
<g>
	<g>
		<line fill="none" stroke="#000000" stroke-width="1.5" x1="387" y1="270" x2="369" y2="306"/>
		<path d="M364.951,314.097c0.491-4.517,0.443-10.45-0.646-14.656l5.226,5.497l7.533,0.883
			C373.045,307.473,368.269,310.994,364.951,314.097z"/>
	</g>
</g>
<g>
	<g>
		<line fill="none" stroke="#000000" stroke-width="1.5" x1="261" y1="54" x2="279" y2="90"/>
		<path d="M283.048,98.098c-3.319-3.104-8.094-6.625-12.113-8.277l7.533-0.882l5.226-5.497
			C282.605,87.647,282.556,93.581,283.048,98.098z"/>
	</g>
</g>
<g>
	<g>
		<line fill="none" stroke="#000000" stroke-width="1.5" x1="369" y1="54" x2="387" y2="90"/>
		<path d="M391.048,98.098c-3.319-3.104-8.095-6.625-12.113-8.277l7.533-0.882l5.226-5.497
			C390.605,87.647,390.556,93.581,391.048,98.098z"/>
	</g>
</g>
<g>
	<g>
		<line fill="none" stroke="#000000" stroke-width="1.5" x1="405" y1="126" x2="423" y2="162"/>
		<path d="M427.048,170.098c-3.319-3.104-8.095-6.625-12.113-8.277l7.533-0.882l5.226-5.497
			C426.605,159.647,426.556,165.581,427.048,170.098z"/>
	</g>
</g>
<g>
	<g>
		<line fill="none" stroke="#000000" stroke-width="1.5" x1="36" y1="54" x2="36" y2="162"/>
		<path d="M36,171.053c-1.581-4.26-4.277-9.545-7.132-12.82l7.132,2.58l7.132-2.58C40.277,161.508,37.58,166.793,36,171.053z"/>
	</g>
</g>
<g>
	<g>
		<line fill="none" stroke="#000000" stroke-width="1.5" x1="135" y1="117" x2="54" y2="171"/>
		<path d="M46.468,176.021c2.667-3.678,5.569-8.854,6.711-13.046l1.81,7.366l6.103,4.503
			C56.782,174.286,50.888,174.973,46.468,176.021z"/>
	</g>
</g>
<g>
	<g>
		<line fill="none" stroke="#000000" stroke-width="1.5" x1="288" y1="126" x2="288" y2="162"/>
		<path d="M288,171.053c-1.581-4.26-4.277-9.545-7.132-12.82l7.132,2.58l7.132-2.58C292.277,161.508,289.58,166.793,288,171.053z"/>
	</g>
</g>
<g>
	<g>
		<line fill="none" stroke="#000000" stroke-width="1.5" x1="216" y1="126" x2="243" y2="234"/>
		<path d="M245.196,242.783c-2.567-3.749-6.465-8.223-10.029-10.708l7.545,0.773l6.293-4.232
			C247.03,232.485,245.695,238.267,245.196,242.783z"/>
	</g>
</g>
<g>
	<g>
		<line fill="none" stroke="#000000" stroke-width="1.5" x1="279" y1="198" x2="261" y2="234"/>
		<path d="M256.952,242.097c0.491-4.517,0.443-10.45-0.646-14.657l5.226,5.497l7.533,0.882
			C265.046,235.473,260.27,238.994,256.952,242.097z"/>
	</g>
</g>
<g>
	<g>
		<line fill="none" stroke="#000000" stroke-width="1.5" x1="360" y1="51" x2="360" y2="303"/>
		<path d="M360,312.052c-1.58-4.26-4.277-9.545-7.133-12.82l7.133,2.58l7.133-2.58C364.277,302.507,361.58,307.792,360,312.052z"/>
	</g>
</g>
<circle fill="#FFFFFF" stroke="#000000" stroke-width="1.5" cx="504" cy="36" r="9"/>
<circle fill="#FFFFFF" stroke="#000000" stroke-width="1.5" cx="540" cy="108" r="9"/>
<circle fill="#FFFFFF" stroke="#000000" stroke-width="1.5" cx="576" cy="180" r="9"/>
<circle fill="#FFFFFF" stroke="#000000" stroke-width="1.5" cx="540" cy="252" r="9"/>
<circle fill="#FFFFFF" stroke="#000000" stroke-width="1.5" cx="504" cy="324" r="9"/>
<g>
	<g>
		<line fill="none" stroke="#000000" stroke-width="1.5" x1="567" y1="198" x2="549" y2="234"/>
		<path d="M544.951,242.097c0.491-4.517,0.443-10.45-0.646-14.656l5.226,5.497l7.533,0.882
			C553.045,235.473,548.269,238.994,544.951,242.097z"/>
	</g>
</g>
<g>
	<g>
		<line fill="none" stroke="#000000" stroke-width="1.5" x1="531" y1="270" x2="513" y2="306"/>
		<path d="M508.951,314.097c0.491-4.517,0.443-10.45-0.646-14.656l5.226,5.497l7.533,0.883
			C517.045,307.473,512.269,310.994,508.951,314.097z"/>
	</g>
</g>
<g>
	<g>
		<line fill="none" stroke="#000000" stroke-width="1.5" x1="513" y1="54" x2="531" y2="90"/>
		<path d="M535.048,98.098c-3.319-3.104-8.095-6.625-12.113-8.277l7.533-0.882l5.226-5.497
			C534.605,87.647,534.556,93.581,535.048,98.098z"/>
	</g>
</g>
<g>
	<g>
		<line fill="none" stroke="#000000" stroke-width="1.5" x1="549" y1="126" x2="567" y2="162"/>
		<path d="M571.048,170.098c-3.319-3.104-8.095-6.625-12.113-8.277l7.533-0.882l5.226-5.497
			C570.605,159.647,570.556,165.581,571.048,170.098z"/>
	</g>
</g>
<g>
	<g>
		<line fill="none" stroke="#000000" stroke-width="1.5" stroke-dasharray="4,2" x1="504" y1="309" x2="504" y2="57"/>
		<path d="M504,47.947c1.58,4.26,4.277,9.545,7.133,12.82L504,58.188l-7.133,2.58C499.722,57.492,502.419,52.207,504,47.947z"/>
	</g>
</g>
</svg>
